<svg height="512" viewBox="0 0 64 64" width="512" xmlns="http://www.w3.org/2000/svg"><g id="Payment-3" data-name="Payment"><path d="m59 26h-23v-1a1 1 0 0 0 -1-1h-3v-2h10a6.006 6.006 0 0 0 6-6v-3a1 1 0 0 0 -1-1h-9v-4a6.006 6.006 0 0 0 -6-6h-21a5.006 5.006 0 0 0 -5 5v7.1a5.009 5.009 0 0 0 -4 4.9v38a5.006 5.006 0 0 0 5 5h20a5.006 5.006 0 0 0 5-5v-5h3a1 1 0 0 0 1-1v-1h23a3 3 0 0 0 3-3v-18a3 3 0 0 0 -3-3zm-13-10a4 4 0 0 1 -8 0v-2h8zm-38-9a3 3 0 0 1 3-3h16.532a5.976 5.976 0 0 0 -1.532 4v14h-18zm22 50a3 3 0 0 1 -3 3h-20a3 3 0 0 1 -3-3v-38a3 3 0 0 1 2-2.816v6.816a1 1 0 0 0 1 1h20a1 1 0 0 0 1-1v-6.816a3 3 0 0 1 2 2.816zm-2-42.9v-6.1a4 4 0 0 1 8 0v8a5.969 5.969 0 0 0 1.54 4h-5.54v-1a5.009 5.009 0 0 0 -4-4.9zm6 35.9h-2v-24h2zm25-22a1 1 0 0 1 1 1v3h-24v-4zm0 20h-23v-14h24v13a1 1 0 0 1 -1 1z"/><path d="m11 36h-4a1 1 0 0 0 -1 1v4a1 1 0 0 0 1 1h4a1 1 0 0 0 1-1v-4a1 1 0 0 0 -1-1zm-1 4h-2v-2h2z"/><path d="m19 36h-4a1 1 0 0 0 -1 1v4a1 1 0 0 0 1 1h4a1 1 0 0 0 1-1v-4a1 1 0 0 0 -1-1zm-1 4h-2v-2h2z"/><path d="m27 36h-4a1 1 0 0 0 -1 1v4a1 1 0 0 0 1 1h4a1 1 0 0 0 1-1v-4a1 1 0 0 0 -1-1zm-1 4h-2v-2h2z"/><path d="m11 44h-4a1 1 0 0 0 -1 1v4a1 1 0 0 0 1 1h4a1 1 0 0 0 1-1v-4a1 1 0 0 0 -1-1zm-1 4h-2v-2h2z"/><path d="m19 44h-4a1 1 0 0 0 -1 1v4a1 1 0 0 0 1 1h4a1 1 0 0 0 1-1v-4a1 1 0 0 0 -1-1zm-1 4h-2v-2h2z"/><path d="m27 44h-4a1 1 0 0 0 -1 1v4a1 1 0 0 0 1 1h4a1 1 0 0 0 1-1v-4a1 1 0 0 0 -1-1zm-1 4h-2v-2h2z"/><path d="m11 52h-4a1 1 0 0 0 -1 1v4a1 1 0 0 0 1 1h4a1 1 0 0 0 1-1v-4a1 1 0 0 0 -1-1zm-1 4h-2v-2h2z"/><path d="m19 52h-4a1 1 0 0 0 -1 1v4a1 1 0 0 0 1 1h4a1 1 0 0 0 1-1v-4a1 1 0 0 0 -1-1zm-1 4h-2v-2h2z"/><path d="m27 52h-4a1 1 0 0 0 -1 1v4a1 1 0 0 0 1 1h4a1 1 0 0 0 1-1v-4a1 1 0 0 0 -1-1zm-1 4h-2v-2h2z"/><path d="m27 28h-20a1 1 0 0 0 -1 1v4a1 1 0 0 0 1 1h20a1 1 0 0 0 1-1v-4a1 1 0 0 0 -1-1zm-1 4h-18v-2h18z"/><path d="m55 40a2.981 2.981 0 0 0 -2 .78 3 3 0 1 0 0 4.44 3 3 0 1 0 2-5.22zm-4 4a1 1 0 1 1 1-1 1 1 0 0 1 -1 1zm4 0a1 1 0 1 1 1-1 1 1 0 0 1 -1 1z"/><path d="m10 8h2v2h-2z"/><path d="m14 8h10v2h-10z"/><path d="m10 12h14v2h-14z"/><path d="m10 16h14v2h-14z"/></g></svg>